<svg xmlns="http://www.w3.org/2000/svg" viewBox="0 0 128 128">
  <rect width="128" height="128" rx="16" fill="#b45309"/>
  <path d="M52.5 38.5c3.8-3.2 8.8-5 14.5-5 6.2 0 11.4 1.9 15.3 5.6 4 3.8 6 8.7 6 14.5 0 4.5-1.2 8.2-3.5 11.2-1.5 1.9-4.2 4.3-8 7.2-2.8 2.1-4.6 3.8-5.5 5.2-1 1.5-1.5 3.5-1.6 6h-12.4c0-4.2.7-7.4 2.2-9.8 1.5-2.4 4.2-5 8-7.8 2.8-2.1 4.6-3.7 5.5-4.8 1.4-1.8 2.2-3.8 2.2-6.2 0-2.8-1-5-2.8-6.8-1.9-1.8-4.3-2.7-7.2-2.7-3 0-5.5 1-7.3 2.8-1.8 1.9-2.8 4.6-3 8H42.5c.3-7.2 2.8-12.8 7.2-16.6zM57.2 88.5c0-2.2.7-3.9 2.2-5.2 1.5-1.3 3.3-2 5.5-2s4 .7 5.5 2c1.5 1.3 2.2 3 2.2 5.2 0 2.1-.7 3.8-2.2 5.1-1.5 1.3-3.3 2-5.5 2s-4-.7-5.5-2c-1.5-1.3-2.2-3-2.2-5.1z" fill="#fff"/>
</svg>
